<?xml version="1.0" encoding="UTF-8"?>
<svg width="84px" height="84px" viewBox="0 0 84 84" version="1.1" xmlns="http://www.w3.org/2000/svg" xmlns:xlink="http://www.w3.org/1999/xlink">
    <!-- Generator: Sketch 62 (91390) - https://sketch.com -->
    <title>编组 6</title>
    <desc>Created with Sketch.</desc>
    <g id="页面-1" stroke="none" stroke-width="1" fill="none" fill-rule="evenodd">
        <g id="06iPad首页" transform="translate(-748.000000, -286.000000)">
            <g id="编组-13" transform="translate(340.000000, 273.000000)">
                <g id="编组-9" transform="translate(408.000000, 13.000000)">
                    <g id="编组-6">
                        <rect id="矩形备份-2" fill="#D6E6FF" x="0" y="0" width="84" height="84" rx="10"></rect>
                        <g id="编组-5" transform="translate(15.000000, 15.000000)" fill-rule="nonzero">
                            <rect id="矩形" fill="#000000" opacity="0" x="0" y="0" width="54" height="54"></rect>
                            <g id="消息" transform="translate(3.000000, 3.000000)">
                                <rect id="矩形" fill="#000000" opacity="0" x="0" y="0" width="48" height="48"></rect>
                                <path d="M39.9,34.8 L39.9,21.3 C39.9,13.5 34.2,6.9 26.7,5.7 L26.7,2.7 C26.7,1.2 25.5,0 24,0 C22.5,0 21.3,1.2 21.3,2.7 L21.3,5.7 C13.8,6.9 8.1,13.5 8.1,21.3 L8.1,34.5 C6.6,34.5 5.4,35.7 5.4,37.2 C5.4,38.7 6.6,39.9 8.1,39.9 L40.2,39.9 C41.7,39.9 42.9,38.7 42.9,37.2 C42.6,36 41.4,34.8 39.9,34.8 Z" id="形状" fill="#1973FF"></path>
                                <path d="M34.8,34.8 L13.2,34.8 L13.2,21.3 C13.2,15.3 18,10.5 24,10.5 C30,10.5 34.8,15.3 34.8,21.3 L34.8,34.8 L34.8,34.8 Z" id="路径" fill="#96BFFF"></path>
                                <path d="M26.7,42.6 L21.3,42.6 C19.8,42.6 18.6,43.8 18.6,45.3 C18.6,46.8 19.8,48 21.3,48 L26.7,48 C28.2,48 29.4,46.8 29.4,45.3 C29.4,43.8 28.2,42.6 26.7,42.6 L26.7,42.6 Z" id="路径" fill="#1973FF"></path>
                            </g>
                        </g>
                    </g>
                </g>
            </g>
        </g>
    </g>
</svg>