<?xml version="1.0" encoding="UTF-8"?>
<svg width="84px" height="84px" viewBox="0 0 84 84" version="1.1" xmlns="http://www.w3.org/2000/svg" xmlns:xlink="http://www.w3.org/1999/xlink">
    <!-- Generator: Sketch 62 (91390) - https://sketch.com -->
    <title>icon_ipad_yuebao2</title>
    <desc>Created with Sketch.</desc>
    <defs>
        <path d="M23.5326,0.0265546723 L1.66598108,0.0265546723 C0.744485294,0.0265546723 2.00623831e-13,0.767494798 2.00623831e-13,1.68460251 L2.00623831e-13,44.7938462 C2.00623831e-13,45.7109539 0.744485294,46.451894 1.66598108,46.451894 L34.9856026,46.451894 C35.9070984,46.451894 36.6515837,45.7109539 36.6515837,44.7938462 L36.6515837,15.6318557 C36.6515837,14.6815414 36.2921867,13.7663856 35.6455124,13.0700311 L23.5326,0.0265546723 L23.5326,0.0265546723 Z" id="path-1"></path>
    </defs>
    <g id="页面-1" stroke="none" stroke-width="1" fill="none" fill-rule="evenodd">
        <g id="06iPad首页" transform="translate(-340.000000, -459.000000)">
            <g id="icon_ipad_yuebao2" transform="translate(340.000000, 459.000000)">
                <rect id="矩形" fill="#D6E6FF" x="0" y="0" width="84" height="84" rx="10"></rect>
                <g id="file-text" transform="translate(15.000000, 18.000000)">
                    <rect id="矩形" fill="#000000" fill-rule="nonzero" opacity="0" x="0" y="0" width="54" height="54"></rect>
                    <g id="编组-13" transform="translate(9.000000, 3.000000)">
                        <g id="路径" transform="translate(0.000000, 0.914622)">
                            <mask id="mask-2" fill="white">
                                <use xlink:href="#path-1"></use>
                            </mask>
                            <use id="蒙版" fill="#1973FF" fill-rule="nonzero" xlink:href="#path-1"></use>
                            <polygon fill="#96BFFF" fill-rule="nonzero" mask="url(#mask-2)" points="36.6515837 14.1533929 23.5326 14.1533929 23.5326 -1.83905179e-14"></polygon>
                        </g>
                        <path d="M32.9031263,43.6359082 L3.74845742,43.6359082 L3.74845742,4.6717841 L19.4711538,4.6717841 L19.4711538,15.863607 C19.4711538,17.0656917 20.4499177,18.0397948 21.657754,18.0397948 L32.9031263,18.0397948 L32.9031263,43.6359082 Z" id="形状" fill="#1973FF" fill-rule="nonzero"></path>
                        <path d="M16.7222851,27.9908088 L7.94117647,27.9908088 C7.73119344,27.9908088 7.55938914,28.1626131 7.55938914,28.3725962 L7.55938914,30.6633201 C7.55938914,30.8733032 7.73119344,31.0451075 7.94117647,31.0451075 L16.7222851,31.0451075 C16.9322681,31.0451075 17.1040724,30.8733032 17.1040724,30.6633201 L17.1040724,28.3725962 C17.1040724,28.1626131 16.9322681,27.9908088 16.7222851,27.9908088 Z" id="路径" fill="#96BFFF" fill-rule="nonzero"></path>
                        <path d="M7.55938914,21.8822115 L7.55938914,24.1729355 C7.55938914,24.3829186 7.73119344,24.5547229 7.94117647,24.5547229 L26.2669683,24.5547229 C26.4769514,24.5547229 26.6487557,24.3829186 26.6487557,24.1729355 L26.6487557,21.8822115 C26.6487557,21.6722285 26.4769514,21.5004242 26.2669683,21.5004242 L7.94117647,21.5004242 C7.73119344,21.5004242 7.55938914,21.6722285 7.55938914,21.8822115 Z" id="路径" fill="#96BFFF" fill-rule="nonzero"></path>
                    </g>
                </g>
            </g>
        </g>
    </g>
</svg>