<?xml version="1.0" encoding="UTF-8"?>
<svg width="84px" height="84px" viewBox="0 0 84 84" version="1.1" xmlns="http://www.w3.org/2000/svg" xmlns:xlink="http://www.w3.org/1999/xlink">
    <!-- Generator: Sketch 62 (91390) - https://sketch.com -->
    <title>编组 3</title>
    <desc>Created with Sketch.</desc>
    <g id="页面-1" stroke="none" stroke-width="1" fill="none" fill-rule="evenodd">
        <g id="01首页" transform="translate(-915.000000, -338.000000)">
            <g id="编组-3" transform="translate(915.000000, 338.000000)">
                <rect id="矩形备份-4" fill="#D6E6FF" x="0" y="0" width="84" height="84" rx="10"></rect>
                <g id="pie-chart备份" transform="translate(15.000000, 15.000000)" fill-rule="nonzero">
                    <rect id="矩形" fill="#000000" opacity="0" x="0" y="0" width="54" height="54"></rect>
                    <path d="M45.5625,27.3164062 L26.6835938,27.3164062 L26.6835938,8.4375 C26.6835938,8.20546875 26.49375,8.015625 26.2617188,8.015625 L24.890625,8.015625 C22.0429688,8.015625 19.2796875,8.57460937 16.6798828,9.67148438 C14.1697266,10.7314453 11.9126953,12.2554687 9.97734375,14.1908203 C8.04199219,16.1261719 6.51796875,18.3832031 5.45800781,20.8933594 C4.35585938,23.4984375 3.796875,26.2617188 3.796875,29.109375 C3.796875,31.9570312 4.35585938,34.7203125 5.45273438,37.3201172 C6.51269531,39.8302734 8.03671875,42.0873047 9.97207031,44.0226563 C11.9074219,45.9580078 14.1644531,47.4820313 16.6746094,48.5419922 C19.2796875,49.6441406 22.0429688,50.203125 24.890625,50.203125 C27.7382813,50.203125 30.5015625,49.6441406 33.1013672,48.5472656 C35.6115234,47.4873047 37.8685547,45.9632813 39.8039063,44.0279297 C41.7392578,42.0925781 43.2632813,39.8355469 44.3232422,37.3253906 C45.4253906,34.7203125 45.984375,31.9570312 45.984375,29.109375 L45.984375,27.7382812 C45.984375,27.50625 45.7945313,27.3164062 45.5625,27.3164062 Z" id="形状" fill="#1973FF"></path>
                    <path d="M50.203125,24.384375 L50.0660156,22.8972656 C49.6177734,18.0404297 47.4609375,13.4578125 43.9910156,9.9984375 C40.5210938,6.53378906 35.9332031,4.38222656 31.0605469,3.93398438 L29.5681641,3.796875 C29.3203125,3.77578125 29.109375,3.965625 29.109375,4.21347656 L29.109375,24.46875 C29.109375,24.7007813 29.2992188,24.890625 29.53125,24.890625 L49.78125,24.8378906 C50.0291016,24.8378906 50.2242188,24.6269531 50.203125,24.384375 Z" id="路径" fill="#96BFFF"></path>
                </g>
            </g>
        </g>
    </g>
</svg>