<?xml version="1.0" encoding="UTF-8"?>
<svg width="84px" height="84px" viewBox="0 0 84 84" version="1.1" xmlns="http://www.w3.org/2000/svg" xmlns:xlink="http://www.w3.org/1999/xlink">
    <!-- Generator: Sketch 62 (91390) - https://sketch.com -->
    <title>编组 5</title>
    <desc>Created with Sketch.</desc>
    <g id="页面-1" stroke="none" stroke-width="1" fill="none" fill-rule="evenodd">
        <g id="01首页" transform="translate(-507.000000, -338.000000)">
            <g id="编组-5" transform="translate(507.000000, 338.000000)">
                <rect id="矩形备份" fill="#D6E6FF" x="0" y="0" width="84" height="84" rx="10"></rect>
                <g id="read备份" transform="translate(15.000000, 15.000000)" fill-rule="nonzero">
                    <rect id="矩形" fill="#000000" opacity="0" x="0" y="0" width="54" height="54"></rect>
                    <path d="M48.9375,8.49023438 L36.871875,8.49023438 C34.2826172,8.49023438 31.7513672,9.23378906 29.5734375,10.6365234 L27,12.2871094 L24.4265625,10.6365234 C22.2539062,9.23378906 19.7173828,8.49023438 17.128125,8.49023438 L5.0625,8.49023438 C4.12910156,8.49023438 3.375,9.24433594 3.375,10.1777344 L3.375,40.1308594 C3.375,41.0642578 4.12910156,41.8183594 5.0625,41.8183594 L17.128125,41.8183594 C19.7173828,41.8183594 22.2486328,42.5619141 24.4265625,43.9646484 L26.7679688,45.4728516 C26.8365234,45.5150391 26.915625,45.5414063 26.9947266,45.5414063 C27.0738281,45.5414063 27.1529297,45.5203125 27.2214844,45.4728516 L29.5628906,43.9646484 C31.7460938,42.5619141 34.2826172,41.8183594 36.871875,41.8183594 L48.9375,41.8183594 C49.8708984,41.8183594 50.625,41.0642578 50.625,40.1308594 L50.625,10.1777344 C50.625,9.24433594 49.8708984,8.49023438 48.9375,8.49023438 Z" id="形状结合" fill="#1973FF"></path>
                    <path d="M27.9790039,14.0375977 C28.2551463,14.0375977 28.4790039,14.2614553 28.4790039,14.5375977 L28.4790039,41.5375977 C28.4790039,41.81374 28.2551463,42.0375977 27.9790039,42.0375977 L25.9790039,42.0375977 C25.7028615,42.0375977 25.4790039,41.81374 25.4790039,41.5375977 L25.4790039,14.5375977 C25.4790039,14.2614553 25.7028615,14.0375977 25.9790039,14.0375977 L27.9790039,14.0375977 Z M20.9302734,26.4199219 C21.1102295,26.4199219 21.2619232,26.557196 21.293502,26.736359 L21.2994141,26.8154297 L21.2994141,29.1884766 C21.2994141,29.3776611 21.1702148,29.5385834 21.0001362,29.5758579 L20.925,29.5839844 L11.1322266,29.5839844 C10.9522705,29.5839844 10.8005768,29.4467102 10.7654652,29.2675472 L10.7578125,29.1884766 L10.7578125,26.8154297 C10.7578125,26.6262451 10.8870117,26.4653229 11.0570904,26.4280483 L11.1322266,26.4199219 L20.9302734,26.4199219 Z M42.8677734,26.4199219 C43.0477295,26.4199219 43.1994232,26.557196 43.231002,26.736359 L43.2369141,26.8154297 L43.2369141,29.1884766 C43.2369141,29.3776611 43.1077148,29.5385834 42.9376362,29.5758579 L42.8625,29.5839844 L33.0697266,29.5839844 C32.8897705,29.5839844 32.7380768,29.4467102 32.7029652,29.2675472 L32.6953125,29.1884766 L32.6953125,26.8154297 C32.6953125,26.6262451 32.8245117,26.4653229 32.9945904,26.4280483 L33.0697266,26.4199219 L42.8677734,26.4199219 Z M20.9302734,19.0371094 C21.1102295,19.0371094 21.2619232,19.1743835 21.293502,19.3535465 L21.2994141,19.4326172 L21.2994141,21.8056641 C21.2994141,21.9948486 21.1702148,22.1557709 21.0001362,22.1930454 L20.925,22.2011719 L11.1322266,22.2011719 C10.9522705,22.2011719 10.8005768,22.0638977 10.7654652,21.8847347 L10.7578125,21.8056641 L10.7578125,19.4326172 C10.7578125,19.2434326 10.8870117,19.0825104 11.0570904,19.0452358 L11.1322266,19.0371094 L20.9302734,19.0371094 Z M42.8625,19.0371094 C43.0424561,19.0371094 43.1941498,19.1743835 43.2292614,19.3535465 L43.2369141,19.4326172 L43.2369141,21.8056641 C43.2369141,21.9948486 43.1077148,22.1557709 42.9376362,22.1930454 L42.8625,22.2011719 L33.0697266,22.2011719 C32.8897705,22.2011719 32.7380768,22.0638977 32.7029652,21.8847347 L32.6953125,21.8056641 L32.6953125,19.4326172 C32.6953125,19.2434326 32.8245117,19.0825104 32.9945904,19.0452358 L33.0697266,19.0371094 L42.8625,19.0371094 Z" id="形状结合" fill="#96BFFF"></path>
                </g>
            </g>
        </g>
    </g>
</svg>