<?xml version="1.0" encoding="UTF-8"?>
<svg width="84px" height="84px" viewBox="0 0 84 84" version="1.1" xmlns="http://www.w3.org/2000/svg" xmlns:xlink="http://www.w3.org/1999/xlink">
    <!-- Generator: Sketch 62 (91390) - https://sketch.com -->
    <title>编组 4</title>
    <desc>Created with Sketch.</desc>
    <g id="页面-1" stroke="none" stroke-width="1" fill="none" fill-rule="evenodd">
        <g id="01首页" transform="translate(-303.000000, -338.000000)">
            <g id="编组-4" transform="translate(303.000000, 338.000000)">
                <rect id="矩形" fill="#D6E6FF" x="0" y="0" width="84" height="84" rx="10"></rect>
                <g id="wrench备份" transform="translate(15.000000, 15.000000)" fill-rule="nonzero">
                    <rect id="矩形" fill="#000000" opacity="0" x="0" y="0" width="54" height="54"></rect>
                    <path d="M46.2269531,12.6298828 C46.2005859,12.5824219 46.1636719,12.5349609 46.1214844,12.4980469 C45.8578125,12.234375 45.4306641,12.234375 45.1669922,12.4980469 L36.0808594,21.5841797 L32.5001953,18.0035156 L41.5916016,8.91210938 C41.6337891,8.86992188 41.6654297,8.82773438 41.6970703,8.78027344 C41.8869141,8.45859375 41.7814453,8.04726563 41.4597656,7.85742188 C36.28125,4.79882813 29.4996094,5.50019531 25.0435547,9.95097656 C21.5103516,13.4841797 20.3396484,18.4939453 21.5367188,22.9974609 L6.08554688,38.4486328 C5.92734375,38.6068359 5.93789063,38.8652344 6.10136719,39.0287109 L15.0503906,47.9777344 C15.2138672,48.1412109 15.4775391,48.1517578 15.6304688,47.9935547 L31.0763672,32.5476563 C35.5851563,33.75 40.5949219,32.5845703 44.1333984,29.0460938 C48.5841797,24.5900391 49.2855469,17.8083984 46.2269531,12.6298828 Z" id="形状" fill="#1973FF"></path>
                    <polygon id="路径" fill="#96BFFF" points="29.0258789 29.2290039 15.2138672 43.0417969 11.0373047 38.8652344 25.0546875 25.1469727"></polygon>
                </g>
            </g>
        </g>
    </g>
</svg>