<?xml version="1.0" encoding="UTF-8"?>
<svg width="84px" height="84px" viewBox="0 0 84 84" version="1.1" xmlns="http://www.w3.org/2000/svg" xmlns:xlink="http://www.w3.org/1999/xlink">
    <!-- Generator: Sketch 62 (91390) - https://sketch.com -->
    <title>编组 7</title>
    <desc>Created with Sketch.</desc>
    <g id="页面-1" stroke="none" stroke-width="1" fill="none" fill-rule="evenodd">
        <g id="01首页" transform="translate(-1119.000000, -338.000000)">
            <g id="编组-7" transform="translate(1119.000000, 338.000000)">
                <rect id="矩形备份-3" fill="#D6E6FF" x="0" y="0" width="84" height="84" rx="10"></rect>
                <g id="用户管理" transform="translate(15.000000, 15.000000)" fill-rule="nonzero">
                    <rect id="矩形" fill="#000000" opacity="0" x="0" y="0" width="54" height="54"></rect>
                    <g id="编组-6" transform="translate(5.000000, 7.000000)">
                        <path d="M-4.04700428e-14,1.58478261 C0.000253115389,0.709636207 0.709636207,0.000253115389 1.58478261,1.32995064e-13 L16.3751698,1.32995064e-13 C16.9049177,0.000255149828 17.3995483,0.265033052 17.6935292,0.705723505 L21.3626529,7.07576427 L42.363536,7.07530571 C43.1009001,7.07530571 43.8107507,7.78515625 43.8107507,8.75180027 L43.8107507,37.8244905 C43.8107507,38.6081692 43.1009001,39.3180197 42.363536,39.3180197 L1.72235054,39.3180197 C0.709850543,39.3180197 2.40194338e-13,38.6081692 2.40194338e-13,37.824949 L-4.04700428e-14,1.58478261 Z M15.5272928,3.16956522 L3.16956522,3.16956522 L3.169,7.075 L17.733,7.075 L15.5272928,3.16956522 Z" id="形状结合" fill="#1973FF"></path>
                        <path d="M25.118801,14.5990626 C26.9774145,15.6721336 28.1223675,17.6552507 28.1223675,19.8013927 C28.1219255,21.3983217 27.4958597,22.8512529 26.4765921,23.9280721 C29.6592211,25.5287627 31.8481658,28.8270927 31.8481658,32.6273098 C31.8479126,33.5229699 31.1218999,34.2489826 30.2262398,34.2492357 C29.3304006,34.2492357 28.6041085,33.5231489 28.6038553,32.6273098 C28.6038553,29.0505435 25.6933764,26.1386889 22.1152344,26.1386889 C18.5370924,26.1386889 15.6266135,29.0491678 15.6266135,32.6273098 C15.6117288,33.5125694 14.889843,34.2224196 14.0044582,34.2224196 C13.1190735,34.2224196 12.3971876,33.5125694 12.382303,32.6273098 C12.382303,28.8283915 14.5712476,25.529521 17.7545767,23.9272119 C16.7344356,22.8514735 16.1081012,21.3981573 16.1081012,19.8013927 C16.1081012,17.6552507 17.2530543,15.6721336 19.1116677,14.5990626 C20.9702812,13.5259916 23.2601875,13.5259916 25.118801,14.5990626 Z M22.1152344,17.0399455 C20.9977955,17.0395747 19.9901979,17.7124671 19.5624012,18.7447751 C19.1346045,19.777083 19.3708824,20.9654474 20.161031,21.755596 C20.9511796,22.5457447 22.139544,22.7820225 23.171852,22.3542258 C24.2041599,21.9264291 24.8770523,20.9188315 24.8766815,19.8013927 C24.8741549,18.2775581 23.63907,17.0430885 22.1152344,17.0413213 L22.1152344,17.0399455 Z" id="形状结合" fill="#96BFFF"></path>
                    </g>
                </g>
            </g>
        </g>
    </g>
</svg>