<?xml version="1.0" encoding="UTF-8"?>
<svg width="84px" height="84px" viewBox="0 0 84 84" version="1.1" xmlns="http://www.w3.org/2000/svg" xmlns:xlink="http://www.w3.org/1999/xlink">
    <!-- Generator: Sketch 62 (91390) - https://sketch.com -->
    <title>解决方案</title>
    <desc>Created with Sketch.</desc>
    <g id="页面-1" stroke="none" stroke-width="1" fill="none" fill-rule="evenodd">
        <g id="01首页" transform="translate(-1278.000000, -338.000000)">
            <g id="解决方案" transform="translate(1278.000000, 338.000000)">
                <rect id="矩形备份-3" fill="#D6E6FF" x="0" y="0" width="84" height="84" rx="10"></rect>
                <g id="编组" transform="translate(15.000000, 15.000000)">
                    <rect id="矩形" fill="#FFFFFF" opacity="0" x="0" y="0" width="54" height="54"></rect>
                    <g id="file-text" transform="translate(11.000000, 5.000000)" fill-rule="nonzero">
                        <path d="M22.0673926,-9.60272512e-13 C22.4780161,-9.60272512e-13 22.8693162,0.164249419 23.1591681,0.454101336 L23.1591681,0.454101336 L33.5551902,10.8501234 C33.8450421,11.1399753 34.0092915,11.5361063 34.0092915,11.9467298 L34.0092915,11.9467298 L34.0092915,41.738676 C34.0092915,42.5937391 33.3184778,43.2845528 32.4634146,43.2845528 L32.4634146,43.2845528 L1.54587689,43.2845528 C0.690813734,43.2845528 -1.04155167e-13,42.5937391 -1.04155167e-13,41.738676 L-1.04155167e-13,41.738676 L-1.04155167e-13,1.54587689 C-1.04155167e-13,0.690813734 0.690813734,-9.60272512e-13 1.54587689,-9.60272512e-13 L1.54587689,-9.60272512e-13 Z M21.3524245,3.56517857 L21.3524245,12.656867 L30.444113,12.656867 L21.3524245,3.56517857 Z" id="形状结合" fill="#1973FF"></path>
                        <path d="M16.6181765,26.7629936 L7.72938444,26.7629936 C7.51682636,26.7629936 7.34291521,26.9369048 7.34291521,27.1494628 L7.34291521,29.4682782 C7.34291521,29.6808362 7.51682636,29.8547474 7.72938444,29.8547474 L16.6181765,29.8547474 C16.8307346,29.8547474 17.0046458,29.6808362 17.0046458,29.4682782 L17.0046458,27.1494628 C17.0046458,26.9369048 16.8307346,26.7629936 16.6181765,26.7629936 Z" id="路径" fill="#96BFFF"></path>
                        <path d="M7.34291521,20.5794861 L7.34291521,22.8983014 C7.34291521,23.1108595 7.51682636,23.2847706 7.72938444,23.2847706 L26.2799071,23.2847706 C26.4924652,23.2847706 26.6663763,23.1108595 26.6663763,22.8983014 L26.6663763,20.5794861 C26.6663763,20.366928 26.4924652,20.1930168 26.2799071,20.1930168 L7.72938444,20.1930168 C7.51682636,20.1930168 7.34291521,20.366928 7.34291521,20.5794861 Z" id="路径" fill="#96BFFF"></path>
                    </g>
                </g>
            </g>
        </g>
    </g>
</svg>