<?xml version="1.0" encoding="UTF-8"?>
<svg width="84px" height="84px" viewBox="0 0 84 84" version="1.1" xmlns="http://www.w3.org/2000/svg" xmlns:xlink="http://www.w3.org/1999/xlink">
    <!-- Generator: Sketch 62 (91390) - https://sketch.com -->
    <title>编组 8</title>
    <desc>Created with Sketch.</desc>
    <g id="页面-1" stroke="none" stroke-width="1" fill="none" fill-rule="evenodd">
        <g id="01首页" transform="translate(-711.000000, -338.000000)">
            <g id="编组-8" transform="translate(711.000000, 338.000000)">
                <rect id="矩形备份-5" fill="#D6E6FF" x="0" y="0" width="84" height="84" rx="10"></rect>
                <g id="人员管理" transform="translate(20.000000, 20.000000)" fill-rule="nonzero">
                    <rect id="矩形" fill="#000000" opacity="0" x="0" y="0" width="44" height="44"></rect>
                    <path d="M10.5854866,11.1272121 C10.5854866,6.57763704 14.3395276,2.93211132 18.8773713,2.93211132 C23.4144818,2.93211132 27.1685227,6.57763704 27.1685227,11.1272121 C27.1685227,15.676054 23.474605,19.062023 18.9374946,19.062023 C14.3989177,19.062023 10.5854866,15.676054 10.5854866,11.1272121 Z M2.80465002,38.2882853 L2.80465002,38.2200967 C2.80465002,29.9062156 9.22024744,23.0338277 17.3383611,22.2522246 L19.0665397,21.9963339 C20.9413606,21.8496917 23.5801875,21.6165306 24.9725554,20.3693384 L25.6075162,19.9044826 C28.266873,17.7048492 29.8249466,14.5747709 29.8249466,11.1272121 C29.8249466,5.01443091 24.8222471,0 18.5833536,0 C12.802717,0 7.80441673,5.01443091 7.80441673,11.1272121 C7.80441673,14.5747708 9.36395681,17.704116 12.0225804,19.9037494 L12.802717,20.3693384 L12.0240468,20.6875521 C4.82831276,23.4994167 0.000614759723,30.393801 0.000614759723,38.2200967 C-0.0262781406,41.1360773 2.28993583,43.9655391 5.19785118,43.9926679 L19.0665397,43.9926679 C19.5306624,43.9926679 20.5285627,43.2594568 20.5285627,42.5262456 C20.5285627,41.7945009 19.5306623,41.0627562 19.0665397,41.0627562 L5.27263872,41.0627562 C3.91693135,41.0810865 2.82298032,39.6476587 2.80465002,38.2882853 Z" id="形状" fill="#1973FF"></path>
                    <path d="M28.7031336,21.9347442 C29.3373613,21.9347442 29.8029503,22.2522246 30.1174979,22.5689718 C30.5816205,22.8879187 31.5091326,23.670255 32.1448267,23.670255 C32.7768546,23.670255 33.7043667,22.8879187 34.0218471,22.5689718 C34.3385944,22.0806532 34.9742884,21.9347442 35.4340118,21.9347442 L35.4340118,21.9347442 L36.2163481,21.9347442 L39.0201475,23.4994167 C39.6558415,23.986269 39.9696559,24.9181803 39.6558415,25.7005166 C39.6558415,25.8449592 39.5099325,26.3112815 39.5099325,26.6294951 C39.5099325,28.0225962 40.5833536,29.1231461 41.994785,29.1231461 L41.994785,29.1231461 L42.1428937,29.1231461 C42.7741884,29.1231461 43.408416,29.758107 43.5579911,30.5426429 C43.5579911,30.7120147 43.7024337,31.9584736 43.9935186,32.7408099 C43.9935186,33.8442926 43.6775046,35.0900183 43.6775046,35.0900183 C43.508866,35.870155 42.8981011,36.5080487 42.2653399,36.5080487 L42.2653399,36.5080487 L42.1194309,36.5080487 C40.7292626,36.5080486 39.6309123,37.5844026 39.6309123,39.0031661 C39.6309123,39.4687552 39.7746217,39.9292118 39.7746217,39.9292118 C40.0701058,40.7166806 39.7746217,41.6691218 39.1403941,42.1332444 L39.1403941,42.1332444 L36.3373279,43.6993834 C36.0213139,43.8452924 35.8732053,43.8452924 35.5593909,43.8452924 C34.9251633,43.8452925 34.4595742,43.5263456 34.1442934,43.2066656 C33.8238801,42.7454757 32.7548583,41.9653391 32.1206307,41.9653391 C31.3390277,41.9653391 30.4115156,42.8899184 30.096968,43.2066656 C29.7772879,43.6993834 29.1430603,43.8460257 28.6789376,43.8460257 C28.3643901,43.8460257 28.2177479,43.8460257 27.8973346,43.9926679 L27.8973346,43.9926679 L25.0957349,42.4235961 C24.4600408,41.9323446 24.1454932,41.0084986 24.4600408,40.2224962 C24.4600408,40.0780536 24.6059498,39.6131978 24.6059498,39.297917 C24.6059498,37.9033494 23.5347283,36.8027995 22.1210973,36.8027995 L22.1210973,36.8027995 L21.9715222,36.8027995 C21.3358282,36.8027995 20.7052666,36.1663723 20.5571579,35.3803699 C20.387053,35.2388602 20.2418772,33.9689385 20.2418772,33.0377604 C20.2418772,31.9350109 20.5571579,30.8351942 20.5571579,30.6885519 C20.7272629,29.9084153 21.3372946,29.2705216 21.9715222,29.2705216 L21.9715222,29.2705216 L22.1203641,29.2705216 C22.7838472,29.2791401 23.4225434,29.0187178 23.8908376,28.5486277 C24.3591319,28.0785376 24.6171077,27.4388494 24.6059498,26.7754041 C24.6059498,26.3112814 24.4600408,25.8449592 24.4600408,25.8449592 C24.1667564,25.0626229 24.4600408,24.1101816 25.0957349,23.6453258 L25.0957349,23.6453258 L28.068906,22.0806532 C28.2419439,21.9347442 28.3893193,21.9347442 28.7031336,21.9347442 Z M32.9234969,28.6597567 C29.9466597,28.021863 27.2895025,30.6885519 27.922997,33.8186302 C28.2412106,35.5292118 29.6313789,36.9465089 31.3595575,37.2632561 C34.3385944,37.9033494 36.9964847,35.2373938 36.3622571,32.2532245 C36.0697058,30.3952675 34.6538751,28.9757707 32.9234969,28.6597567 Z" id="形状结合" fill="#1973FF"></path>
                </g>
            </g>
        </g>
    </g>
</svg>