<?xml version="1.0" encoding="UTF-8"?>
<svg width="24px" height="24px" viewBox="0 0 24 24" version="1.1" xmlns="http://www.w3.org/2000/svg" xmlns:xlink="http://www.w3.org/1999/xlink">
    <!-- Generator: Sketch 62 (91390) - https://sketch.com -->
    <title>icon_1</title>
    <desc>Created with Sketch.</desc>
    <g id="icon_1" stroke="none" stroke-width="1" fill="none" fill-rule="evenodd">
        <g id="编组-12" fill-rule="nonzero">
            <rect id="矩形" fill="#000000" opacity="0" x="0" y="0" width="24" height="24"></rect>
            <g id="编组-11" transform="translate(2.654500, 2.662520)">
                <path d="M19.6607812,6.85972667 C19.480438,8.36083292 18.8141186,9.80593587 17.6674507,10.9539622 C15.9832144,12.6381984 13.6559198,13.2855961 11.4770284,12.8975094 L5.00291641,19.3716214 C4.7704755,19.6072472 4.45902175,19.7264327 4.13869818,19.7176966 C3.84861674,19.7097853 3.55289014,19.5934589 3.32745587,19.3680247 L-0.649887883,15.3906809 C-0.876591207,15.1639776 -0.991666668,14.8697368 -0.999560641,14.5802912 C-1.00813792,14.2657908 -0.89361747,13.9553532 -0.656919133,13.7186549 L5.82338381,7.23835191 C5.43785733,5.06170038 6.08722432,2.73466766 7.76928089,1.05261132 C8.91188679,-0.0886423757 10.3495832,-0.753968832 11.8355507,-0.943473852 C13.3543816,-1.13716992 14.9236154,-0.832849689 16.2803162,-0.0315395799 C16.5906846,0.151628642 16.7958454,0.442127023 16.8785281,0.763670887 C16.9611097,1.08482155 16.9217034,1.43805439 16.7387389,1.74807772 L13.204245,5.33904288 L16.7126121,2.1850611 C16.9665392,1.93113399 17.2992111,1.80427726 17.6318283,1.80427726 C17.8432871,1.80427726 18.0547679,1.8555487 18.2460115,1.95839779 C19.5281388,3.72460764 19.8455072,5.32213981 19.6607812,6.85972667 Z" id="形状" stroke="#FFFFFF" stroke-width="2"></path>
                <polygon id="路径" fill="#96BFFF" points="10.2509689 10.3388119 4.10839793 16.5139127 2.2509689 14.6467527 8.48487388 8.51391267"></polygon>
            </g>
        </g>
    </g>
</svg>