<?xml version="1.0" encoding="UTF-8"?>
<svg width="24px" height="24px" viewBox="0 0 24 24" version="1.1" xmlns="http://www.w3.org/2000/svg" xmlns:xlink="http://www.w3.org/1999/xlink">
    <!-- Generator: Sketch 62 (91390) - https://sketch.com -->
    <title>画板</title>
    <desc>Created with Sketch.</desc>
    <g id="画板" stroke="none" stroke-width="1" fill="none" fill-rule="evenodd">
        <g id="编组-5">
            <rect id="矩形" fill="#FFFFFF" opacity="0" x="0" y="0" width="24" height="24"></rect>
            <g id="file-text" transform="translate(3.000000, 1.000000)" fill-rule="nonzero">
                <path d="M17.0549107,5.51473214 L11.7709821,0.230803571 C11.6236607,0.0834821429 11.4247768,0 11.2160714,0 L0.785714286,0 C0.351116071,0 0,0.351116071 0,0.785714286 L0,21.2142857 C0,21.6488839 0.351116071,22 0.785714286,22 L16.5,22 C16.9345982,22 17.2857143,21.6488839 17.2857143,21.2142857 L17.2857143,6.07209821 C17.2857143,5.86339286 17.2022321,5.66205357 17.0549107,5.51473214 Z M15.4736607,6.43303571 L10.8526786,6.43303571 L10.8526786,1.81205357 L15.4736607,6.43303571 Z M15.5178571,20.2321429 L1.76785714,20.2321429 L1.76785714,1.76785714 L9.18303571,1.76785714 L9.18303571,7.07142857 C9.18303571,7.64107143 9.64464286,8.10267857 10.2142857,8.10267857 L15.5178571,8.10267857 L15.5178571,20.2321429 Z" id="形状" fill="#FFFFFF"></path>
                <path d="M8.44642857,13.6026786 L3.92857143,13.6026786 C3.82053571,13.6026786 3.73214286,13.6910714 3.73214286,13.7991071 L3.73214286,14.9776786 C3.73214286,15.0857143 3.82053571,15.1741071 3.92857143,15.1741071 L8.44642857,15.1741071 C8.55446429,15.1741071 8.64285714,15.0857143 8.64285714,14.9776786 L8.64285714,13.7991071 C8.64285714,13.6910714 8.55446429,13.6026786 8.44642857,13.6026786 Z" id="路径" fill="#96BFFF"></path>
                <path d="M3.73214286,10.4598214 L3.73214286,11.6383929 C3.73214286,11.7464286 3.82053571,11.8348214 3.92857143,11.8348214 L13.3571429,11.8348214 C13.4651786,11.8348214 13.5535714,11.7464286 13.5535714,11.6383929 L13.5535714,10.4598214 C13.5535714,10.3517857 13.4651786,10.2633929 13.3571429,10.2633929 L3.92857143,10.2633929 C3.82053571,10.2633929 3.73214286,10.3517857 3.73214286,10.4598214 Z" id="路径" fill="#96BFFF"></path>
            </g>
        </g>
    </g>
</svg>