<?xml version="1.0" encoding="UTF-8"?>
<svg width="24px" height="24px" viewBox="0 0 24 24" version="1.1" xmlns="http://www.w3.org/2000/svg" xmlns:xlink="http://www.w3.org/1999/xlink">
    <!-- Generator: Sketch 62 (91390) - https://sketch.com -->
    <title>icon_5</title>
    <desc>Created with Sketch.</desc>
    <g id="icon_5" stroke="none" stroke-width="1" fill="none" fill-rule="evenodd">
        <g id="用户管理" fill-rule="nonzero">
            <rect id="矩形" fill="#000000" opacity="0" x="0" y="0" width="24" height="24"></rect>
            <g id="编组-6" transform="translate(2.222222, 3.111111)">
                <path d="M-2.04306781e-13,0.704347826 C0.000112495728,0.31539387 0.31539387,0.000112495728 0.704347826,9.62150381e-14 L7.27785326,9.62150381e-14 C7.51329675,0.000113399923 7.73313257,0.117792468 7.86379076,0.313654891 L9.49451238,3.14478412 L18.8282382,3.14458031 C19.1559556,3.14458031 19.4714447,3.46006944 19.4714447,3.88968901 L19.4714447,16.8108847 C19.4714447,17.1591863 19.1559556,17.4746754 18.8282382,17.4746754 L0.76548913,17.4746754 C0.31548913,17.4746754 -7.99618021e-14,17.1591863 -7.99618021e-14,16.8110885 L-2.04306781e-13,0.704347826 Z M6.90101902,1.40869565 L1.40869565,1.40869565 L1.408,3.144 L7.882,3.144 L6.90101902,1.40869565 Z" id="形状结合" stroke="#FFFFFF" stroke-width="2"></path>
                <path d="M11.1639116,6.48847227 C11.989962,6.96539272 12.49883,7.84677807 12.49883,8.80061896 C12.4986336,9.51036699 12.2203807,10.1561156 11.7673708,10.6347023 C13.1815394,11.3456096 14.1547403,12.811749 14.1547403,14.5010266 C14.1546278,14.8990977 13.8319555,15.2217701 13.4338844,15.2218825 C13.0357336,15.2218825 12.7129371,14.8991773 12.7128246,14.5010266 C12.7128246,12.9113527 11.4192784,11.617195 9.82899306,11.617195 C8.23870773,11.617195 6.94516153,12.9107412 6.94516153,14.5010266 C6.93854615,14.8944753 6.61770799,15.2099643 6.22420365,15.2099643 C5.83069932,15.2099643 5.50986116,14.8944753 5.50324577,14.5010266 C5.50324577,12.8123264 6.47644668,11.3459465 7.89165726,10.6339469 C7.4375612,10.1562899 7.1591561,9.51033577 7.1591561,8.80061896 C7.1591561,7.84677807 7.66802411,6.96539272 8.49407455,6.48847227 C9.320125,6.01155181 10.3378611,6.01155181 11.1639116,6.48847227 Z M9.82899306,7.57330911 C9.33235358,7.57314432 8.8845324,7.87220762 8.69440054,8.33101114 C8.50426868,8.78981467 8.60928106,9.31797663 8.96045822,9.6691538 C9.31163538,10.020331 9.83979735,10.1253433 10.2986009,9.93521148 C10.7574044,9.74507961 11.0564677,9.29725844 11.0563029,8.80061896 C11.05518,8.12335917 10.5062533,7.574706 9.82899306,7.57392059 L9.82899306,7.57330911 Z" id="形状结合" fill="#96BFFF"></path>
            </g>
        </g>
    </g>
</svg>