<?xml version="1.0" encoding="UTF-8"?>
<svg width="24px" height="24px" viewBox="0 0 24 24" version="1.1" xmlns="http://www.w3.org/2000/svg" xmlns:xlink="http://www.w3.org/1999/xlink">
    <!-- Generator: Sketch 62 (91390) - https://sketch.com -->
    <title>icon_4</title>
    <desc>Created with Sketch.</desc>
    <g id="icon_4" stroke="none" stroke-width="1" fill="none" fill-rule="evenodd">
        <g id="pie-chart备份" transform="translate(1.000000, 0.000000)" fill-rule="nonzero">
            <rect id="矩形" fill="#000000" opacity="0" x="0" y="0.923076923" width="22.1538462" height="22.1538462"></rect>
            <path d="M18.6923077,12.1298077 L10.9471154,12.1298077 L10.9471154,4.38461538 C10.9471154,4.28942308 10.8692308,4.21153846 10.7740385,4.21153846 L10.2115385,4.21153846 C9.04326923,4.21153846 7.90961538,4.44086538 6.84302885,4.89086538 C5.81322115,5.32572115 4.88725962,5.95096154 4.09326923,6.74495192 C3.29927885,7.53894231 2.67403846,8.46490385 2.23918269,9.49471154 C1.78701923,10.5634615 1.55769231,11.6971154 1.55769231,12.8653846 C1.55769231,14.0336538 1.78701923,15.1673077 2.23701923,16.2338942 C2.671875,17.2637019 3.29711538,18.1896635 4.09110577,18.9836538 C4.88509615,19.7776442 5.81105769,20.4028846 6.84086538,20.8377404 C7.90961538,21.2899038 9.04326923,21.5192308 10.2115385,21.5192308 C11.3798077,21.5192308 12.5134615,21.2899038 13.5800481,20.8399038 C14.6098558,20.4050481 15.5358173,19.7798077 16.3298077,18.9858173 C17.1237981,18.1918269 17.7490385,17.2658654 18.1838942,16.2360577 C18.6360577,15.1673077 18.8653846,14.0336538 18.8653846,12.8653846 L18.8653846,12.3028846 C18.8653846,12.2076923 18.7875,12.1298077 18.6923077,12.1298077 Z" id="形状" stroke="#FFFFFF" stroke-width="2"></path>
            <path d="M22.4423077,9.08076923 L22.3860577,8.47067308 C22.2021635,6.478125 21.3173077,4.59807692 19.89375,3.17884615 C18.4701923,1.75745192 16.5879808,0.874759615 14.5889423,0.690865385 L13.9766827,0.634615385 C13.875,0.625961538 13.7884615,0.703846154 13.7884615,0.805528846 L13.7884615,9.11538462 C13.7884615,9.21057692 13.8663462,9.28846154 13.9615385,9.28846154 L22.2692308,9.26682692 C22.3709135,9.26682692 22.4509615,9.18028846 22.4423077,9.08076923 Z" id="路径" fill="#96BFFF"></path>
        </g>
    </g>
</svg>