<?xml version="1.0" encoding="UTF-8"?>
<svg width="24px" height="24px" viewBox="0 0 24 24" version="1.1" xmlns="http://www.w3.org/2000/svg" xmlns:xlink="http://www.w3.org/1999/xlink">
    <!-- Generator: Sketch 62 (91390) - https://sketch.com -->
    <title>icon_3</title>
    <desc>Created with Sketch.</desc>
    <g id="icon_3" stroke="none" stroke-width="1" fill="none" fill-rule="evenodd">
        <g id="人员管理" fill-rule="nonzero">
            <rect id="矩形" fill="#000000" opacity="0" x="0" y="0" width="24" height="24"></rect>
            <g id="编组-14" transform="translate(1.000000, 2.000000)">
                <circle id="椭圆形" stroke="#FFFFFF" stroke-width="2" cx="9.5" cy="4.5" r="4.5"></circle>
                <path d="M9,9 C4.02943725,9 -4.54747351e-13,13 -4.54747351e-13,19.9851074 C-4.54747351e-13,19.9851074 3.02897135,19.9851074 9.08691406,19.9851074" id="路径" stroke="#FFFFFF" stroke-width="2" stroke-linecap="round"></path>
                <path d="M14.3513754,9.96737211 C14.6684892,9.96737211 14.9012837,10.1261123 15.0585575,10.2844859 C15.2906188,10.4439593 15.7543748,10.8351275 16.0722219,10.8351275 C16.3882359,10.8351275 16.8519919,10.4439593 17.0107321,10.2844859 C17.1691057,10.0403266 17.4869527,9.96737211 17.7168144,9.96737211 L17.7168144,9.96737211 L18.1079826,9.96737211 L19.5098823,10.7497084 C19.8277293,10.9931345 19.9846365,11.4590901 19.8277293,11.8502583 C19.8277293,11.9224796 19.7547748,12.1556407 19.7547748,12.3147476 C19.7547748,13.0112981 20.2914853,13.5615731 20.997201,13.5615731 L20.997201,13.5615731 L21.0712554,13.5615731 C21.3869028,13.5615731 21.7040166,13.8790535 21.7788041,14.2713214 C21.7788041,14.3560073 21.8510254,14.9792368 21.9965678,15.3704049 C21.9965678,15.9221463 21.8385608,16.5450092 21.8385608,16.5450092 C21.7542415,16.9350775 21.4488591,17.2540243 21.1324785,17.2540243 L21.1324785,17.2540243 L21.059524,17.2540243 C20.3644398,17.2540243 19.8152647,17.7922013 19.8152647,18.5015831 C19.8152647,18.7343776 19.8871194,18.9646059 19.8871194,18.9646059 C20.0348614,19.3583403 19.8871194,19.8345609 19.5700056,20.0666222 L19.5700056,20.0666222 L18.1684725,20.8496917 C18.0104655,20.9226462 17.9364112,20.9226462 17.779504,20.9226462 C17.4623902,20.9226462 17.2295956,20.7631728 17.0719553,20.6033328 C16.9117486,20.3727379 16.3772377,19.9826696 16.0601239,19.9826696 C15.6693224,19.9826696 15.2055663,20.4449592 15.0482925,20.6033328 C14.8884525,20.8496917 14.5713387,20.9230128 14.3392774,20.9230128 C14.1820036,20.9230128 14.1086825,20.9230128 13.9484758,20.9963339 L13.9484758,20.9963339 L12.547676,20.211798 C12.2298289,19.9661723 12.0725552,19.5042493 12.2298289,19.1112481 C12.2298289,19.0390268 12.3027834,18.8065989 12.3027834,18.6489585 C12.3027834,17.9516747 11.7671727,17.4013998 11.0603572,17.4013998 L11.0603572,17.4013998 L10.9855696,17.4013998 C10.6677226,17.4013998 10.3524418,17.0831861 10.2783875,16.690185 C10.193335,16.6194301 10.1207471,15.9844693 10.1207471,15.5188802 C10.1207471,14.9675054 10.2783875,14.4175971 10.2783875,14.344276 C10.36344,13.9542076 10.6684558,13.6352608 10.9855696,13.6352608 L10.9855696,13.6352608 L11.0599906,13.6352608 C11.3917322,13.6395701 11.7110802,13.5093589 11.9452273,13.2743139 C12.1793745,13.0392688 12.3083624,12.7194247 12.3027834,12.387702 C12.3027835,12.1556407 12.2298289,11.9224796 12.2298289,11.9224796 L12.1945127,11.8029064 C12.1142272,11.4385052 12.2616136,11.031848 12.547676,10.8226629 L12.547676,10.8226629 L14.0342615,10.0403266 C14.1207805,9.96737211 14.1944682,9.96737211 14.3513754,9.96737211 Z M16.461557,13.3298784 C14.9731384,13.0109315 13.6445598,14.344276 13.961307,15.9093151 C14.1204138,16.7646059 14.815498,17.4732545 15.6795873,17.6316281 C17.1691057,17.9516747 18.4980509,16.6186969 18.1809371,15.1266122 C18.0346615,14.1976337 17.3267461,13.4878854 16.461557,13.3298784 Z" id="形状结合" fill="#96BFFF"></path>
            </g>
        </g>
    </g>
</svg>