<?xml version="1.0" encoding="UTF-8"?>
<svg width="24px" height="24px" viewBox="0 0 24 24" version="1.1" xmlns="http://www.w3.org/2000/svg" xmlns:xlink="http://www.w3.org/1999/xlink">
    <!-- Generator: Sketch 62 (91390) - https://sketch.com -->
    <title>icon_2</title>
    <desc>Created with Sketch.</desc>
    <g id="icon_2" stroke="none" stroke-width="1" fill="none" fill-rule="evenodd">
        <g id="read备份" fill-rule="nonzero">
            <rect id="矩形" fill="#000000" opacity="0" x="0" y="0" width="24" height="24"></rect>
            <path d="M21.75,3.7734375 L16.3875,3.7734375 C15.2367187,3.7734375 14.1117188,4.10390625 13.14375,4.72734375 L12,5.4609375 L10.85625,4.72734375 C9.890625,4.10390625 8.76328125,3.7734375 7.6125,3.7734375 L2.25,3.7734375 C1.83515625,3.7734375 1.5,4.10859375 1.5,4.5234375 L1.5,17.8359375 C1.5,18.2507813 1.83515625,18.5859375 2.25,18.5859375 L7.6125,18.5859375 C8.76328125,18.5859375 9.88828125,18.9164063 10.85625,19.5398438 L11.896875,20.2101563 C11.9273438,20.2289063 11.9625,20.240625 11.9976563,20.240625 C12.0328125,20.240625 12.0679688,20.23125 12.0984375,20.2101563 L13.1390625,19.5398438 C14.109375,18.9164063 15.2367187,18.5859375 16.3875,18.5859375 L21.75,18.5859375 C22.1648438,18.5859375 22.5,18.2507813 22.5,17.8359375 L22.5,4.5234375 C22.5,4.10859375 22.1648438,3.7734375 21.75,3.7734375 Z" id="形状结合" stroke="#FFFFFF" stroke-width="2"></path>
            <path d="M12.4351128,7.23893229 C12.5578428,7.23893229 12.6573351,7.33842457 12.6573351,7.46115451 L12.6573351,18.0167101 C12.6573351,18.13944 12.5578428,18.2389323 12.4351128,18.2389323 L11.546224,18.2389323 C11.423494,18.2389323 11.3240017,18.13944 11.3240017,18.0167101 L11.3240017,7.46115451 C11.3240017,7.33842457 11.423494,7.23893229 11.546224,7.23893229 L12.4351128,7.23893229 Z M9.30234375,11.7421875 C9.37546875,11.7421875 9.43809375,11.7931875 9.45901875,11.8627875 L9.46640625,11.9179688 L9.46640625,12.9726563 C9.46640625,13.0495313 9.41840625,13.1159063 9.35240625,13.1393813 L9.3,13.1484375 L4.94765625,13.1484375 C4.87453125,13.1484375 4.81190625,13.0974375 4.78978125,13.0278375 L4.78125,12.9726563 L4.78125,11.9179688 C4.78125,11.8410938 4.82925,11.7747188 4.89525,11.7512438 L4.94765625,11.7421875 L9.30234375,11.7421875 Z M19.0523437,11.7421875 C19.1254687,11.7421875 19.1880937,11.7931875 19.2090187,11.8627875 L19.2164062,11.9179688 L19.2164062,12.9726563 C19.2164062,13.0495313 19.1684062,13.1159063 19.1024062,13.1393813 L19.05,13.1484375 L14.6976562,13.1484375 C14.6245312,13.1484375 14.5619062,13.0974375 14.5397812,13.0278375 L14.53125,12.9726563 L14.53125,11.9179688 C14.53125,11.8410938 14.57925,11.7747188 14.64525,11.7512438 L14.6976562,11.7421875 L19.0523437,11.7421875 Z M9.30234375,8.4609375 C9.37546875,8.4609375 9.43809375,8.5119375 9.45901875,8.5815375 L9.46640625,8.63671875 L9.46640625,9.69140625 C9.46640625,9.76828125 9.41840625,9.83465625 9.35240625,9.85813125 L9.3,9.8671875 L4.94765625,9.8671875 C4.87453125,9.8671875 4.81190625,9.8161875 4.78978125,9.7465875 L4.78125,9.69140625 L4.78125,8.63671875 C4.78125,8.55984375 4.82925,8.49346875 4.89525,8.46999375 L4.94765625,8.4609375 L9.30234375,8.4609375 Z M19.05,8.4609375 C19.123125,8.4609375 19.18575,8.5119375 19.207875,8.5815375 L19.2164062,8.63671875 L19.2164062,9.69140625 C19.2164062,9.76828125 19.1684062,9.83465625 19.1024062,9.85813125 L19.05,9.8671875 L14.6976562,9.8671875 C14.6245312,9.8671875 14.5619062,9.8161875 14.5397812,9.7465875 L14.53125,9.69140625 L14.53125,8.63671875 C14.53125,8.55984375 14.57925,8.49346875 14.64525,8.46999375 L14.6976562,8.4609375 L19.05,8.4609375 Z" id="形状结合" fill="#96BFFF"></path>
        </g>
    </g>
</svg>