<?xml version="1.0" encoding="UTF-8"?>
<svg width="16px" height="16px" viewBox="0 0 16 16" version="1.1" xmlns="http://www.w3.org/2000/svg" xmlns:xlink="http://www.w3.org/1999/xlink">
    <!-- Generator: Sketch 62 (91390) - https://sketch.com -->
    <title>画板</title>
    <desc>Created with Sketch.</desc>
    <g id="画板" stroke="none" stroke-width="1" fill="none" fill-rule="evenodd">
        <g id="消息" fill-rule="nonzero">
            <rect id="矩形" fill="#000000" opacity="0" x="0" y="0" width="16" height="16"></rect>
            <path d="M13.3,11.6 L13.3,7.1 C13.3,4.5 11.4,2.3 8.9,1.9 L8.9,0.9 C8.9,0.4 8.5,0 8,0 C7.5,0 7.1,0.4 7.1,0.9 L7.1,1.9 C4.6,2.3 2.7,4.5 2.7,7.1 L2.7,11.5 C2.2,11.5 1.8,11.9 1.8,12.4 C1.8,12.9 2.2,13.3 2.7,13.3 L13.4,13.3 C13.9,13.3 14.3,12.9 14.3,12.4 C14.2,12 13.8,11.6 13.3,11.6 Z M11.6,11.6 L4.4,11.6 L4.4,7.1 C4.4,5.1 6,3.5 8,3.5 C10,3.5 11.6,5.1 11.6,7.1 L11.6,11.6 L11.6,11.6 Z" id="形状" fill="#FFFFFF"></path>
            <path d="M8.9,14.2 L7.1,14.2 C6.6,14.2 6.2,14.6 6.2,15.1 C6.2,15.6 6.6,16 7.1,16 L8.9,16 C9.4,16 9.8,15.6 9.8,15.1 C9.8,14.6 9.4,14.2 8.9,14.2 L8.9,14.2 Z" id="路径" fill="#96BFFF"></path>
        </g>
    </g>
</svg>